<svg width="223" height="145" viewBox="0 0 223 145" fill="none" xmlns="http://www.w3.org/2000/svg">
<path d="M37.5 22.5C46.7 2.09999 14 4.00001 0 0H223V145C222.5 132.833 214.8 104.2 188 87C154.5 65.5 146 111 112.5 102.5C85.7 95.7 112.333 46.3333 129 22.5C114.167 31.5 78.4 51.3 54 58.5C23.5 67.5 26 48 37.5 22.5Z" fill="url(#paint0_linear_203_318)"/>
<circle opacity="0.2" cx="192" cy="26" r="20" fill="url(#paint1_linear_203_318)"/>
<circle opacity="0.2" cx="145" cy="46" r="10" fill="url(#paint2_linear_203_318)"/>
<circle opacity="0.2" cx="205" cy="72" r="10" fill="url(#paint3_linear_203_318)"/>
<circle opacity="0.2" cx="69" cy="19" r="10" fill="url(#paint4_linear_203_318)"/>
<defs>
<linearGradient id="paint0_linear_203_318" x1="201" y1="4.50001" x2="105" y2="85.5" gradientUnits="userSpaceOnUse">
<stop stop-color="#D41F4C"/>
<stop offset="1" stop-color="#EB2355" stop-opacity="0.81"/>
</linearGradient>
<linearGradient id="paint1_linear_203_318" x1="192" y1="6" x2="192" y2="46" gradientUnits="userSpaceOnUse">
<stop stop-color="white"/>
<stop offset="1" stop-color="white" stop-opacity="0"/>
</linearGradient>
<linearGradient id="paint2_linear_203_318" x1="145" y1="36" x2="145" y2="56" gradientUnits="userSpaceOnUse">
<stop stop-color="white"/>
<stop offset="1" stop-color="white" stop-opacity="0"/>
</linearGradient>
<linearGradient id="paint3_linear_203_318" x1="205" y1="62" x2="205" y2="82" gradientUnits="userSpaceOnUse">
<stop stop-color="white"/>
<stop offset="1" stop-color="white" stop-opacity="0"/>
</linearGradient>
<linearGradient id="paint4_linear_203_318" x1="69" y1="9" x2="69" y2="29" gradientUnits="userSpaceOnUse">
<stop stop-color="white"/>
<stop offset="1" stop-color="white" stop-opacity="0"/>
</linearGradient>
</defs>
</svg>
