<svg width="133" height="42" viewBox="0 0 133 42" fill="none" xmlns="http://www.w3.org/2000/svg">
<path fill-rule="evenodd" clip-rule="evenodd" d="M4.02297 0H41.7495C43.9678 0 45.7725 1.79194 45.7725 3.99455V27.962C45.7725 30.1646 43.9678 31.9565 41.7495 31.9565H19.174L6.80919 42V31.9565H4.02297C1.8047 31.9565 0 30.1646 0 27.962V3.99455C0 1.79194 1.8047 0 4.02297 0ZM32.3629 29.2936H41.7499C42.4893 29.2936 43.0908 28.6963 43.0908 27.9621V13.3154H40.1894C39.5203 15.299 37.4691 16.4938 35.3901 16.0893L37.5017 19.2344C37.9125 19.8463 37.7459 20.673 37.1297 21.0809C36.5135 21.4887 35.6809 21.3234 35.2701 20.7115L32.3629 16.3816V29.2936ZM35.3502 10.7187C36.3691 10.044 37.7269 10.7695 37.7269 11.9817C37.7269 13.203 36.3656 13.9205 35.3502 13.2484L33.4394 11.9835L35.3502 10.7187ZM32.3629 9.49565L33.8625 8.50292C36.1777 6.97034 39.3126 8.05325 40.1889 10.652H43.0908V3.99439C43.0908 3.26028 42.4893 2.66298 41.7499 2.66298H32.3629V9.49565ZM4.02324 29.2935C3.28382 29.2935 2.68225 28.6962 2.68225 27.9621V13.3154H21.8548C22.5269 15.3084 24.5841 16.4918 26.6537 16.0893L24.5421 19.2344C24.1313 19.8462 24.2979 20.6729 24.9141 21.0809C25.5295 21.4884 26.3624 21.3241 26.7737 20.7115L29.6809 16.3815V29.2935H17.9251L9.19476 36.5637V29.2935H4.02324ZM28.6044 11.9835L26.6936 10.7187C25.6782 10.0464 24.317 10.764 24.317 11.9853C24.317 13.1996 25.6766 13.9217 26.6936 13.2483L28.6044 11.9835ZM21.8544 10.6521H2.68225V3.9945C2.68225 3.26029 3.28382 2.66298 4.02324 2.66298H29.6809V9.49565L28.1813 8.50302C25.8658 6.97026 22.731 8.05361 21.8544 10.6521Z" fill="#ED3D69"/>
<path d="M72.5211 16.6588V18.2728C72.5211 21.2616 71.563 23.6826 69.6468 25.5356C67.7306 27.3887 65.2555 28.3152 62.2215 28.3152C58.9879 28.3152 56.3032 27.2692 54.1674 25.177C52.0516 23.0649 50.9937 20.4945 50.9937 17.4658C50.9937 14.4172 52.0417 11.8368 54.1375 9.72468C56.2533 7.61257 58.8681 6.55656 61.982 6.55656C63.9381 6.55656 65.7245 7.00484 67.3413 7.90149C68.9581 8.77822 70.2156 9.95384 71.1139 11.4283L67.5809 13.4607C67.0818 12.6039 66.3233 11.9065 65.3054 11.3685C64.3073 10.8306 63.1896 10.5615 61.952 10.5615C59.956 10.5615 58.3092 11.2191 57.0118 12.5342C55.7343 13.8294 55.0956 15.4732 55.0956 17.4658C55.0956 19.4384 55.7443 21.0723 57.0418 22.3675C58.3591 23.6427 60.0957 24.2803 62.2514 24.2803C63.8483 24.2803 65.1656 23.9316 66.2036 23.2342C67.2615 22.5169 67.9801 21.5405 68.3593 20.3052H62.0119V16.6588H72.5211Z" fill="#1C1C1C"/>
<path d="M77.1965 11.1593C76.5578 11.1593 75.9989 10.9302 75.5198 10.4719C75.0607 9.99372 74.8312 9.43577 74.8312 8.79815C74.8312 8.16054 75.0607 7.60264 75.5198 7.12442C75.9989 6.64621 76.5578 6.4071 77.1965 6.4071C77.8552 6.4071 78.4141 6.64621 78.8732 7.12442C79.3522 7.60264 79.5917 8.16054 79.5917 8.79815C79.5917 9.43577 79.3522 9.99372 78.8732 10.4719C78.4141 10.9302 77.8552 11.1593 77.1965 11.1593ZM75.2803 27.8968V12.9527H79.1426V27.8968H75.2803Z" fill="#1C1C1C"/>
<path d="M90.7318 10.2627C88.616 10.1033 87.558 10.9501 87.558 12.8032V12.9527H90.7318V16.6588H87.558V27.8968H83.6957V16.6588H81.54V12.9527H83.6957V12.8032C83.6957 10.6911 84.2845 9.08707 85.4622 7.99116C86.6399 6.89526 88.3964 6.41708 90.7318 6.55656V10.2627Z" fill="#1C1C1C"/>
<path d="M101.533 16.6588H98.1495V22.8755C98.1495 23.3936 98.2793 23.7722 98.5388 24.0113C98.7983 24.2504 99.1775 24.3899 99.6765 24.4297C100.176 24.4497 100.794 24.4397 101.533 24.3999V27.8968C98.8781 28.1957 97.0018 27.9466 95.904 27.1496C94.8261 26.3526 94.2872 24.9279 94.2872 22.8755V16.6588H91.6824V12.9527H94.2872V9.93394L98.1495 8.76828V12.9527H101.533V16.6588Z" fill="#1C1C1C"/>
<path d="M118.532 6.97496V10.9202H112.873V27.8968H108.742V10.9202H103.113V6.97496H118.532Z" fill="#1C1C1C"/>
<path d="M130.695 26.0437C129.158 27.5581 127.281 28.3152 125.066 28.3152C122.85 28.3152 120.974 27.5581 119.437 26.0437C117.92 24.5094 117.161 22.6365 117.161 20.4247C117.161 18.213 117.92 16.3499 119.437 14.8356C120.974 13.3013 122.85 12.5342 125.066 12.5342C127.281 12.5342 129.158 13.3013 130.695 14.8356C132.232 16.3499 133 18.213 133 20.4247C133 22.6365 132.232 24.5094 130.695 26.0437ZM122.161 23.3837C122.94 24.1608 123.908 24.5493 125.066 24.5493C126.223 24.5493 127.192 24.1608 127.97 23.3837C128.748 22.6066 129.138 21.6203 129.138 20.4247C129.138 19.2292 128.748 18.2429 127.97 17.4658C127.192 16.6887 126.223 16.3001 125.066 16.3001C123.908 16.3001 122.94 16.6887 122.161 17.4658C121.403 18.2429 121.024 19.2292 121.024 20.4247C121.024 21.6203 121.403 22.6066 122.161 23.3837Z" fill="#1C1C1C"/>
</svg>
