<svg width="194" height="59" viewBox="0 0 194 59" fill="none" xmlns="http://www.w3.org/2000/svg">
<path fill-rule="evenodd" clip-rule="evenodd" d="M5.54378 0H57.5288C60.5855 0 63.0723 2.48663 63.0723 5.54309V38.8016C63.0723 41.8581 60.5855 44.3447 57.5288 44.3447H26.4211L9.38304 58.2816V44.3447H5.54378C2.48714 44.3447 0.000350952 41.8581 0.000350952 38.8016V5.54309C0.000350952 2.48663 2.48714 0 5.54378 0ZM44.5947 40.6494H57.5294C58.5483 40.6494 59.3772 39.8206 59.3772 38.8018V18.4771H55.3791C54.4572 21.2297 51.6308 22.8877 48.7659 22.3265L51.6756 26.6907C52.2417 27.5398 52.0122 28.687 51.163 29.253C50.314 29.8189 49.1667 29.5895 48.6006 28.7404L44.5947 22.732V40.6494ZM48.7109 14.8741C50.1149 13.9379 51.9858 14.9445 51.9858 16.6267C51.9858 18.3215 50.1101 19.3172 48.7109 18.3845L46.078 16.6293L48.7109 14.8741ZM44.5947 13.1767L46.661 11.7992C49.8512 9.67251 54.1709 11.1752 55.3785 14.7814H59.3772V5.54291C59.3772 4.52421 58.5483 3.69533 57.5294 3.69533H44.5947V13.1767ZM5.54417 40.6493C4.52529 40.6493 3.69637 39.8204 3.69637 38.8018V18.4771H30.1151C31.0412 21.2427 33.8759 22.8849 36.7277 22.3265L33.818 26.6907C33.252 27.5397 33.4815 28.6868 34.3306 29.253C35.1786 29.8184 36.3262 29.5905 36.893 28.7404L40.8989 22.7318V40.6493H24.7001L12.6702 50.7379V40.6493H5.54417ZM39.4156 16.6291L36.7827 14.8739C35.3834 13.9411 33.5078 14.9369 33.5078 16.6316C33.5078 18.3166 35.3813 19.3186 36.7827 18.3842L39.4156 16.6291ZM30.1145 14.7815H3.69637V5.54303C3.69637 4.52421 4.52529 3.69533 5.54417 3.69533H40.8989V13.1767L38.8326 11.7993C35.642 9.67239 31.3224 11.1757 30.1145 14.7815Z" fill="white"/>
<path d="M110.546 25.2258V27.4655C110.546 31.613 109.226 34.9724 106.586 37.5439C103.945 40.1153 100.535 41.401 96.354 41.401C91.8983 41.401 88.199 39.9494 85.256 37.0462C82.3405 34.1153 80.8828 30.5484 80.8828 26.3457C80.8828 22.1152 82.3268 18.5346 85.2147 15.6037C88.1302 12.6728 91.7333 11.2074 96.024 11.2074C98.7194 11.2074 101.181 11.8295 103.409 13.0737C105.637 14.2903 107.37 15.9217 108.607 17.9678L103.739 20.788C103.051 19.5991 102.006 18.6314 100.603 17.8848C99.2282 17.1383 97.688 16.765 95.9827 16.765C93.2323 16.765 90.9632 17.6774 89.1754 19.5023C87.4151 21.2996 86.535 23.5807 86.535 26.3457C86.535 29.083 87.4288 31.3503 89.2166 33.1475C91.0319 34.9171 93.4248 35.8019 96.3953 35.8019C98.5956 35.8019 100.411 35.318 101.841 34.3503C103.299 33.3549 104.289 32.0001 104.812 30.2858H96.0652V25.2258H110.546Z" fill="white"/>
<path d="M116.989 17.5945C116.109 17.5945 115.338 17.2765 114.678 16.6406C114.046 15.977 113.729 15.2028 113.729 14.318C113.729 13.4332 114.046 12.659 114.678 11.9954C115.338 11.3318 116.109 11 116.989 11C117.896 11 118.666 11.3318 119.299 11.9954C119.959 12.659 120.289 13.4332 120.289 14.318C120.289 15.2028 119.959 15.977 119.299 16.6406C118.666 17.2765 117.896 17.5945 116.989 17.5945ZM114.348 40.8204V20.083H119.67V40.8204H114.348Z" fill="white"/>
<path d="M135.64 16.3502C132.724 16.129 131.266 17.3042 131.266 19.8756V20.083H135.64V25.2258H131.266V40.8204H125.944V25.2258H122.974V20.083H125.944V19.8756C125.944 16.9447 126.756 14.7189 128.378 13.1982C130.001 11.6774 132.422 11.0138 135.64 11.2074V16.3502Z" fill="white"/>
<path d="M150.523 25.2258H145.861V33.8526C145.861 34.5715 146.04 35.0968 146.397 35.4286C146.755 35.7604 147.277 35.954 147.965 36.0093C148.653 36.0369 149.505 36.0231 150.523 35.9678V40.8204C146.865 41.2351 144.279 40.8895 142.767 39.7835C141.281 38.6775 140.539 36.7005 140.539 33.8526V25.2258H136.949V20.083H140.539V15.894L145.861 14.2765V20.083H150.523V25.2258Z" fill="white"/>
<path d="M173.947 11.788V17.2627H166.149V40.8204H160.456V17.2627H152.7V11.788H173.947Z" fill="white"/>
<path d="M190.706 38.2489C188.588 40.3503 186.003 41.401 182.95 41.401C179.897 41.401 177.311 40.3503 175.194 38.2489C173.103 36.1199 172.058 33.5208 172.058 30.4517C172.058 27.3825 173.103 24.7973 175.194 22.6959C177.311 20.5669 179.897 19.5023 182.95 19.5023C186.003 19.5023 188.588 20.5669 190.706 22.6959C192.824 24.7973 193.883 27.3825 193.883 30.4517C193.883 33.5208 192.824 36.1199 190.706 38.2489ZM178.948 34.5577C180.021 35.636 181.355 36.1752 182.95 36.1752C184.545 36.1752 185.879 35.636 186.952 34.5577C188.024 33.4793 188.561 32.1107 188.561 30.4517C188.561 28.7927 188.024 27.424 186.952 26.3457C185.879 25.2673 184.545 24.7282 182.95 24.7282C181.355 24.7282 180.021 25.2673 178.948 26.3457C177.903 27.424 177.38 28.7927 177.38 30.4517C177.38 32.1107 177.903 33.4793 178.948 34.5577Z" fill="white"/>
</svg>
